# AST/ASF file generated using VICON BodyLanguage
# -----------------------------------------------
:version 1.10
:name VICON
:units
  mass 1.0
  length 0.45
  angle deg
:documentation
   .ast/.asf automatically generated from VICON data using
   VICON BodyBuilder and BodyLanguage model FoxedUp or BRILLIANT.MOD
:root
   order TX TY TZ RX RY RZ
   axis XYZ
   position 0 0 0  
   orientation 0 0 0 
:bonedata
  begin
     id 1 
     name lhipjoint
     direction 0.584852 -0.759097 0.285867 
     length 2.43633 
     axis 0 0 0  XYZ
  end
  begin
     id 2 
     name lfemur
     direction 0.34202 -0.939693 0  
     length 7.14704  
     axis 0 0 20  XYZ
    dof rx ry rz
    limits (-160.0 20.0)
           (-70.0 70.0)
           (-60.0 70.0)
  end
  begin
     id 3 
     name ltibia
     direction 0.342022 -0.939692 0   
     length 7.68483   
     axis 0 0 20   XYZ
    dof rx
    limits (-10.0 170.0)
  end
  begin
     id 4 
     name lfoot
     direction 0.0999605 -0.274639 0.956337   
     length 2.40452   
     axis -90 7.62852e-016 20   XYZ
    dof rx rz
    limits (-45.0 90.0)
           (-70.0 20.0)
  end
  begin
     id 5 
     name ltoes
     direction 1.53468e-011 -4.21881e-011 1   
     length 1.19837   
     axis -90 7.62852e-016 20   XYZ
    dof rx
    limits (-90.0 20.0)
  end
  begin
     id 6 
     name rhipjoint
     direction -0.569886 -0.769002 0.289597   
     length 2.40495  
     axis 0 0 0  XYZ 
  end
  begin
     id 7 
     name rfemur
     direction -0.34202 -0.939693 0   
     length 7.45086   
     axis 0 0 -20   XYZ
    dof rx ry rz
    limits (-160.0 20.0)
           (-70.0 70.0)
           (-70.0 60.0)
  end
  begin
     id 8 
     name rtibia
     direction -0.34202 -0.939693 0   
     length 7.76831   
     axis 0 0 -20   XYZ
    dof rx
    limits (-10.0 170.0)
 end
 begin
     id 9 
     name rfoot
     direction -0.0798572 -0.219406 0.97236   
     length 2.35911  
     axis -90 -7.62852e-016 -20   XYZ
    dof rx rz
    limits (-45.0 90.0)
           (-20.0 70.0)
  end
  begin
     id 10 
     name rtoes
     direction -1.53469e-011 -4.21728e-011 1   
     length 1.18261   
     axis -90 -7.62852e-016 -20   XYZ
    dof rx
    limits (-90.0 20.0)
  end
  begin
     id 11 
     name lowerback
     direction 0.0242088 0.999437 0.0232389   
     length 2.1561   
     axis 0 0 0   XYZ
    dof rx ry rz
    limits (-20.0 45.0)
           (-30.0 30.0)
           (-30.0 30.0)
  end
  begin
     id 12 
     name upperback
     direction -0.0356893 0.999013 -0.0264323   
     length 2.14431   
     axis 0 0 0   XYZ
    dof rx ry rz
    limits (-20.0 45.0)
           (-30.0 30.0)
           (-30.0 30.0)
  end
  begin
     id 13 
     name thorax
     direction -0.0472163 0.998194 -0.0371284   
     length 2.16169   
     axis 0 0 0   XYZ
    dof rx ry rz
    limits (-20.0 45.0)
           (-30.0 30.0)
           (-30.0 30.0)
  end
  begin
     id 14 
     name lowerneck
     direction 0.00863244 0.999921 0.00911972   
     length 1.58651   
     axis 0 0 0   XYZ
    dof rx ry rz
    limits (-20.0 45.0)
           (-30.0 30.0)
           (-30.0 30.0)
  end
  begin
     id 15 
     name upperneck
     direction 0.149523 0.979068 -0.138086   
     length 1.57486   
     axis 0 0 0   XYZ
    dof rx ry rz
    limits (-20.0 45.0)
           (-30.0 30.0)
           (-30.0 30.0)
  end
  begin
     id 16
     name head
     direction 0.0445219 0.997708 -0.0509576  
     length 1.6019  
     axis 0 0 0   XYZ
    dof rx ry rz
    limits (-20.0 45.0)
           (-30.0 30.0)
           (-30.0 30.0)
  end
  begin
     id 17 
     name lclavicle
     direction 0.911271 0.381667 -0.154644  
     length 3.80848  
     axis 0 0 0   XYZ
    dof ry rz
    limits (-20.0 10.0)
           (0.0 20.0)
  end
  begin
     id 18 
     name lhumerus
     direction 1 -4.49003e-011 2.1308e-027   
     length 5.19069   
     axis 180 -30 -90   XYZ
    dof rx ry rz
    limits (-60.0 90.0)
           (-90.0 90.0)
           (-90.0 90.0)
  end
  begin
     id 19
     name lradius
     direction 1 -4.48914e-011 4.01554e-027   
     length 3.30016   
     axis 180 -30 -90   XYZ
    dof rx
    limits (-10.0 170.0)
  end
  begin
     id 20
     name lwrist
     direction 1 -4.49003e-011 1.1934e-026   
     length 1.65008   
     axis -8.46377e-015 90 90   XYZ
    dof ry
    limits (-180.0 0.0)
 end
  begin
     id 21 
     name lhand
     direction 1 -4.49034e-011 2.38659e-026   
     length 0.707698   
     axis -1.52313e-014 90 90   XYZ
    dof rx rz
    limits (-90.0 90.0)
           (-45.0 45.0)
  end
  begin
     id 22 
     name lfingers
     direction 1 -4.48691e-011 4.77775e-026   
     length 0.570564   
     axis -3.04623e-014 90 90   XYZ
    dof rx
    limits (0.0 90.0)
  end
  begin
     id 23
     name lthumb
     direction 0.707107 -6.34832e-011 0.707107   
     length 0.819219   
     axis -90 45 -1.62303e-014   XYZ
    dof rx rz
    limits (-45.0 45.0)
           (-45.0 45.0)
  end
  begin
     id 24 
     name rclavicle
     direction -0.815579 0.573708 -0.0754329   
     length 3.54371  
     axis 0 0 0   XYZ 
    dof ry rz
    limits (-10.0 20.0)
           (-20.0 0.0)
  end
  begin
     id 25 
     name rhumerus
     direction -1 -4.48956e-011 3.05351e-028  
     length 5.23924   
     axis 180 30 90   XYZ
    dof rx ry rz
    limits (-90.0 60.0)
           (-90.0 90.0)
           (-90.0 90.0)
  end
  begin
     id 26 
     name rradius
     direction -1 -4.49013e-011 3.53849e-027   
     length 3.32953   
     axis 180 30 90   XYZ
    dof rx
    limits (-10.0 170.0)
  end
  begin
     id 27 
     name rwrist
     direction -1 -4.48901e-011 1.19374e-026   
     length 1.66477   
     axis -8.46377e-015 -90 -90   XYZ
    dof ry
    limits (-180.0 0.0)
  end
  begin
     id 28
     name rhand
     direction -1 -4.48877e-011 2.38764e-026   
     length 0.607414   
     axis -1.52313e-014 -90 -90   XYZ
    dof rx rz
    limits (-90.0 90.0)
           (-45.0 45.0)
  end
  begin
     id 29
     name rfingers
     direction -1 -4.48882e-011 4.77521e-026   
     length 0.489712   
     axis -3.04623e-014 -90 -90   XYZ
    dof rx
    limits (0.0 90.0)
  end
  begin
     id 30
     name rthumb
     direction -0.707107 -6.34974e-011 0.707107   
     length 0.703132   
     axis -90 -45 1.62303e-014   XYZ
    dof rx rz
    limits (-45.0 45.0)
           (-45.0 45.0)
  end
:hierarchy
  begin
    root lhipjoint rhipjoint lowerback
    lhipjoint lfemur
    lfemur ltibia
    ltibia lfoot
    lfoot ltoes
    rhipjoint rfemur
    rfemur rtibia
    rtibia rfoot
    rfoot rtoes
    lowerback upperback
    upperback thorax
    thorax lowerneck lclavicle rclavicle
    lowerneck upperneck
    upperneck head
    lclavicle lhumerus
    lhumerus lradius
    lradius lwrist
    lwrist lhand lthumb
    lhand lfingers
    rclavicle rhumerus
    rhumerus rradius
    rradius rwrist
    rwrist rhand rthumb
    rhand rfingers
  end

#!OML:ASF E:\VariousWalksJay\Project 1\Capture day 1\Session 1\Actor2.ASF
:FULLY-SPECIFIED
:DEGREES
383
root 21.7373 15.2184 -19.1435 10.179 -35.1491 -4.17725
lowerback 34.0397 -3.34203 5.85559
upperback 20.3417 -3.64079 -1.21025
thorax 4.75055 -1.60217 -3.42734
lowerneck 10.1731 -0.754504 0.26435
upperneck -17.8254 -0.0228345 5.65246
head -7.13431 -0.587538 1.79963
rclavicle 8.26944e-014 -3.43897e-014
rhumerus -23.1128 16.5878 -85.371
rradius 75.1253
rwrist 4.30432
rhand -28.8628 -10.9382
rfingers 7.12502
rthumb -2.21924 -40.9064
lclavicle 8.26944e-014 -3.43897e-014
lhumerus 34.7667 -18.9932 57.1349
lradius 87.552
lwrist 59.6303
lhand -42.1945 11.7895
lfingers 7.12502
lthumb -15.0825 41.2201
rfemur -49.8463 3.97691 30.1938
rtibia 72.2199
rfoot -30.147 -18.4474
rtoes 4.49269
lfemur -78.2524 1.04779 -14.2784
ltibia 84.2397
lfoot -18.9769 1.9586
ltoes -21.53
384
root 21.6967 15.2236 -19.0879 10.2346 -35.18 -4.24917
lowerback 33.8487 -3.34896 5.88736
upperback 20.4345 -3.6625 -1.24095
thorax 4.91629 -1.60351 -3.48357
lowerneck 10.2461 -0.729444 0.232594
upperneck -17.7297 0.00835134 5.66914
head -7.11711 -0.569903 1.80665
rclavicle 1.27222e-014 -9.46215e-014
rhumerus -22.9723 16.6704 -85.4725
rradius 75.0287
rwrist 4.33209
rhand -28.8487 -10.9343
rfingers 7.12502
rthumb -2.20559 -40.9026
lclavicle 1.27222e-014 -9.46215e-014
lhumerus 35.1858 -18.6954 57.0149
lradius 86.841
lwrist 59.7846
lhand -42.0943 11.9661
lfingers 7.12502
lthumb -14.986 41.4039
rfemur -49.5377 4.10768 30.2632
rtibia 72.2219
rfoot -30.4096 -18.6511
rtoes 4.24782
lfemur -77.6377 0.914112 -14.3898
ltibia 81.418
lfoot -19.0164 2.63844
ltoes -21.4571
385
root 21.6551 15.231 -19.0302 10.2613 -35.2034 -4.30926
lowerback 33.6414 -3.36432 5.92815
upperback 20.5244 -3.69268 -1.28066
thorax 5.08319 -1.60715 -3.55257
lowerneck 10.3161 -0.705351 0.201528
upperneck -17.6183 0.0373432 5.68471
head -7.09423 -0.552838 1.81313
rclavicle 1.27222e-014 -2.24627e-014
rhumerus -22.8512 16.7552 -85.5945
rradius 74.9289
rwrist 4.35453
rhand -28.8403 -10.9252
rfingers 7.12502
rthumb -2.19749 -40.8936
lclavicle 1.27222e-014 -2.24627e-014
lhumerus 35.5605 -18.4403 56.9377
lradius 86.086
lwrist 59.9074
lhand -41.9846 12.129
lfingers 7.12502
lthumb -14.8804 41.5746
rfemur -49.1847 4.24754 30.3167
rtibia 72.2041
rfoot -30.6708 -18.8575
rtoes 4.03912
lfemur -76.9311 0.784513 -14.5296
ltibia 78.5275
lfoot -19.0359 3.26141
ltoes -21.372
386
root 21.6125 15.24 -18.9711 10.2701 -35.2019 -4.35257
lowerback 33.4146 -3.39295 5.96385
upperback 20.602 -3.73962 -1.31866
thorax 5.24217 -1.61951 -3.61329
lowerneck 10.3849 -0.677052 0.150033
upperneck -17.489 0.0675318 5.69916
head -7.06533 -0.533223 1.82225
rclavicle -2.70347e-014 3.65764e-014
rhumerus -22.749 16.8639 -85.7309
rradius 74.8204
rwrist 4.37605
rhand -28.8325 -10.9246
rfingers 7.12502
rthumb -2.1899 -40.8931
lclavicle -2.70347e-014 3.65764e-014
lhumerus 35.9094 -18.1913 56.8531
lradius 85.2881
lwrist 60.0453
lhand -41.8932 12.2443
lfingers 7.12502
lthumb -14.7923 41.6964
rfemur -48.8097 4.37929 30.3575
rtibia 72.1687
rfoot -30.9221 -19.0884
rtoes 3.80396
lfemur -76.163 0.648668 -14.6946
ltibia 75.5791
lfoot -19.014 3.79493
ltoes -21.2709
387
root 21.5685 15.2505 -18.9106 10.2597 -35.1941 -4.38708
lowerback 33.1694 -3.42038 6.00321
upperback 20.6711 -3.78426 -1.35833
thorax 5.39848 -1.62989 -3.67913
lowerneck 10.4479 -0.655685 0.106765
upperneck -17.3417 0.0877216 5.70891
head -7.02933 -0.51809 1.82907
rclavicle -3.10104e-014 1.74931e-014
rhumerus -22.6803 16.9666 -85.8771
rradius 74.719
rwrist 4.39378
rhand -28.8246 -10.9199
rfingers 7.12502
rthumb -2.18228 -40.8885
lclavicle -3.10104e-014 1.74931e-014
lhumerus 36.2207 -17.9981 56.8057
lradius 84.4529
lwrist 60.1321
lhand -41.8224 12.2641
lfingers 7.12502
lthumb -14.7241 41.7212
rfemur -48.4036 4.51937 30.3895
rtibia 72.1206
rfoot -31.1863 -19.3158
rtoes 3.63468
lfemur -75.33 0.527608 -14.8788
ltibia 72.5896
lfoot -18.9656 4.21886
ltoes -21.1526
388
root 21.5232 15.2619 -18.8481 10.2353 -35.1859 -4.41579
lowerback 32.8981 -3.44248 6.03832
upperback 20.7329 -3.82431 -1.39481
thorax 5.55726 -1.63823 -3.74194
lowerneck 10.503 -0.637434 0.0618551
upperneck -17.1768 0.101494 5.71415
head -6.98608 -0.505047 1.83498
rclavicle -2.38542e-015 -8.74653e-015
rhumerus -22.6399 17.071 -86.0227
rradius 74.6209
rwrist 4.41241
rhand -28.805 -10.9141
rfingers 7.12502
rthumb -2.16343 -40.8829
lclavicle -2.38542e-015 -8.74653e-015
lhumerus 36.5101 -17.8401 56.7688
lradius 83.5862
lwrist 60.1878
lhand -41.7573 12.2369
lfingers 7.12502
lthumb -14.6613 41.6985
rfemur -47.9698 4.6651 30.4175
rtibia 72.0601
rfoot -31.4603 -19.5394
rtoes 3.50919
lfemur -74.4442 0.431878 -15.0803
ltibia 69.577
lfoot -18.8593 4.51955
ltoes -21.0397
